<?xml version="1.0" encoding="UTF-8"?>
<svg version="1.1" xmlns="http://www.w3.org/2000/svg" width="500" height="500">
<path d="M0 0 C165 0 330 0 500 0 C500 165 500 330 500 500 C335 500 170 500 0 500 C0 335 0 170 0 0 Z " fill="#274AB3" transform="translate(0,0)"/>
<path d="M0 0 C3.16115776 1.36983503 3.9927092 1.9890638 6 5 C6.5775 4.7525 7.155 4.505 7.75 4.25 C10 4 10 4 12.25 5.6875 C14 8 14 8 14 12 C15.98 11.67 17.96 11.34 20 11 C20.33 10.01 20.66 9.02 21 8 C21.66 8 22.32 8 23 8 C23.66 9.32 24.32 10.64 25 12 C25.33 11.34 25.66 10.68 26 10 C26.66 10 27.32 10 28 10 C28.25 17.625 28.25 17.625 26 21 C26.556875 20.773125 27.11375 20.54625 27.6875 20.3125 C30 20 30 20 32.56640625 21.09765625 C35 23 35 23 35.890625 25.8828125 C36.00921875 26.95273438 36.1278125 28.02265625 36.25 29.125 C36.38735328 32.87922751 36.38735328 32.87922751 38 36 C37.71269945 38.33944736 37.38063221 40.6739143 37 43 C33.125 44 33.125 44 32 44 C32.33 44.66 32.66 45.32 33 46 C33.99 46.33 34.98 46.66 36 47 C36.495 46.01 36.495 46.01 37 45 C38.32 45 39.64 45 41 45 C41 46.65 41 48.3 41 50 C40.01 50.495 40.01 50.495 39 51 C39.95865509 53.33075929 39.95865509 53.33075929 43 55 C42.360625 55.12375 41.72125 55.2475 41.0625 55.375 C40.381875 55.58125 39.70125 55.7875 39 56 C37.7763932 58.0745356 37.7763932 58.0745356 38 61 C37.34 61 36.68 61 36 61 C37.32 63.64 38.64 66.28 40 69 C39.01 69.33 38.02 69.66 37 70 C37.495 73.465 37.495 73.465 38 77 C37.01 76.34 36.02 75.68 35 75 C34.34 76.65 33.68 78.3 33 80 C32.34 80 31.68 80 31 80 C31.33 78.35 31.66 76.7 32 75 C31.01 74.67 30.02 74.34 29 74 C29.99 72.515 29.99 72.515 31 71 C30.67 70.34 30.34 69.68 30 69 C30 65.76138705 30.6250851 63.90259811 32 61 C32.66 60.67 33.32 60.34 34 60 C34 57.69 34 55.38 34 53 C33.21625 53.515625 32.4325 54.03125 31.625 54.5625 C30.75875 55.036875 29.8925 55.51125 29 56 C28.01 55.505 28.01 55.505 27 55 C27.33 54.67 27.66 54.34 28 54 C27.01 53.67 26.02 53.34 25 53 C25.020625 54.0725 25.04125 55.145 25.0625 56.25 C25 60 25 60 24.375 61.9765625 C23.87660481 64.66581987 24.63738386 65.75239748 25.9375 68.125 C28.26959355 73.06642899 29.13994375 77.59233296 28 83 C26.53245947 85.26478574 25.1969638 86.35227715 23 88 C21.515 87.505 21.515 87.505 20 87 C20.33 86.67 20.66 86.34 21 86 C21 74.51040122 15.26069599 62.32079767 7.28515625 54.1875 C6.86105469 53.795625 6.43695313 53.40375 6 53 C7.485 52.505 7.485 52.505 9 52 C8.42499756 50.72153198 8.42499756 50.72153198 7.83837891 49.41723633 C6.40998886 46.24003126 4.98252 43.06241563 3.55566406 39.88452148 C2.93916824 38.51196113 2.32231093 37.13956308 1.70507812 35.76733398 C0.81544306 33.78933087 -0.07286934 31.81073827 -0.9609375 29.83203125 C-1.49509277 28.64327393 -2.02924805 27.4545166 -2.57958984 26.22973633 C-3.7778392 23.50515043 -4.91683369 20.77190029 -6 18 C-6.99 18.66 -7.98 19.32 -9 20 C-8.34309381 16.21760329 -7.279869 12.78158474 -5.9375 9.1875 C-5.57527344 8.21167969 -5.21304687 7.23585937 -4.83984375 6.23046875 C-4.42412109 5.12638672 -4.42412109 5.12638672 -4 4 C-2.68 4.66 -1.36 5.32 0 6 C0 4.02 0 2.04 0 0 Z " fill="#758BCE" transform="translate(390,191)"/>
<path d="M0 0 C2.84638939 3.41459113 4.57196182 7.17113578 6.3359375 11.2109375 C6.65200958 11.92366821 6.96808167 12.63639893 7.29373169 13.37072754 C8.32626479 15.70312499 9.35107143 18.03881362 10.375 20.375 C11.08637835 21.99114071 11.79796898 23.607188 12.50976562 25.22314453 C13.9636177 28.52635846 15.41382186 31.83114735 16.86230469 35.13671875 C18.55848608 39.00306818 20.27220807 42.86123355 21.99526978 46.71566772 C23.21776651 49.45404313 24.43115251 52.19638914 25.64239502 54.9397583 C26.21030913 56.22129362 26.78183822 57.50123357 27.3571167 58.77947998 C28.15468498 60.55409721 28.93706954 62.33551493 29.71875 64.1171875 C30.16154297 65.11347168 30.60433594 66.10975586 31.06054688 67.13623047 C32.4679225 71.42638538 32.64176927 74.65534057 30.6875 78.75 C29 81 29 81 26 83 C24.515 82.505 24.515 82.505 23 82 C23.66 82 24.32 82 25 82 C25.34027638 75.10033983 22.86475135 70.17913214 20.0625 64 C19.61326172 62.93265625 19.16402344 61.8653125 18.70117188 60.765625 C15.51349069 53.69556796 12.24875578 49.1419549 5 46 C-0.82480214 44.79486852 -6.17975436 45.13777838 -11.5625 47.6875 C-15.629692 51.54611805 -18.73096732 54.70434971 -19.203125 60.48828125 C-19.32631306 67.91036163 -18.65781614 72.21562119 -13.375 77.75 C-9.69192149 80.64251873 -5.54517119 81.32327451 -1 82 C-1 82.66 -1 83.32 -1 84 C-15.19 84 -29.38 84 -44 84 C-44 83.34 -44 82.68 -44 82 C-43.38511719 81.81824219 -42.77023438 81.63648438 -42.13671875 81.44921875 C-41.32847656 81.19785156 -40.52023438 80.94648438 -39.6875 80.6875 C-38.88699219 80.44386719 -38.08648437 80.20023437 -37.26171875 79.94921875 C-34.17466897 78.65361755 -32.55395854 77.05774062 -30.99867249 74.08804321 C-30.70399582 73.36498993 -30.40931915 72.64193665 -30.10571289 71.89697266 C-29.76388474 71.0689061 -29.42205658 70.24083954 -29.06987 69.38768005 C-28.70778946 68.48888626 -28.34570892 67.59009247 -27.97265625 66.6640625 C-27.58717117 65.72454239 -27.2016861 64.78502228 -26.80451965 63.81703186 C-25.55026595 60.75579742 -24.30645468 57.69043207 -23.0625 54.625 C-22.20602946 52.5306832 -21.348768 50.43668967 -20.49072266 48.34301758 C-18.78367686 44.17528601 -17.08024573 40.00611075 -15.38037109 35.83544922 C-12.48348564 28.72959965 -9.56828849 21.63140188 -6.63864136 14.53900146 C-5.88677161 12.71604108 -5.13878886 10.89147908 -4.39086914 9.06689453 C-3.9499292 7.99681152 -3.50898926 6.92672852 -3.0546875 5.82421875 C-2.67812012 4.90729248 -2.30155273 3.99036621 -1.91357422 3.0456543 C-1 1 -1 1 0 0 Z " fill="#3858B9" transform="translate(184,196)"/>
<path d="M0 0 C3 2 3 2 4 4.5625 C4.495 5.7690625 4.495 5.7690625 5 7 C5.99 7.33 6.98 7.66 8 8 C7.34 8 6.68 8 6 8 C6 8.99 6 9.98 6 11 C8.97 11.495 8.97 11.495 12 12 C11.67 12.66 11.34 13.32 11 14 C13.67247634 16.34287418 13.67247634 16.34287418 17 17 C17 17.66 17 18.32 17 19 C16.34 19 15.68 19 15 19 C14.67 20.32 14.34 21.64 14 23 C12.35 23 10.7 23 9 23 C9 22.34 9 21.68 9 21 C10.98 21.495 10.98 21.495 13 22 C12.29660434 19.49034386 12.29660434 19.49034386 11 17 C8.95894361 16.11306697 8.95894361 16.11306697 7 16 C7.33 15.34 7.66 14.68 8 14 C6.72125 14.268125 5.4425 14.53625 4.125 14.8125 C3.40570313 14.96332031 2.68640625 15.11414063 1.9453125 15.26953125 C-0.37046549 15.92308838 -0.37046549 15.92308838 -2 19 C-4.125 19.6875 -4.125 19.6875 -6 20 C-6.09035522 20.56145218 -6.18071045 21.12290436 -6.27380371 21.70137024 C-7.37268882 27.5679603 -9.26641336 31.73535529 -12.65625 36.60546875 C-13.11801636 37.29200027 -13.57978271 37.9785318 -14.05554199 38.68586731 C-15.52416924 40.8621286 -17.01171979 43.02464588 -18.5 45.1875 C-19.46738332 46.61700188 -20.43353841 48.04733574 -21.3984375 49.47851562 C-26.35506918 56.80487572 -31.42968967 64.04014043 -36.59202576 71.22267151 C-39.86498968 75.78478474 -43.01612613 80.40919526 -46.0625 85.125 C-46.53365234 85.83914063 -47.00480469 86.55328125 -47.49023438 87.2890625 C-47.93818359 87.98 -48.38613281 88.6709375 -48.84765625 89.3828125 C-49.23961182 89.98496582 -49.63156738 90.58711914 -50.03540039 91.20751953 C-51.06457267 93.11999305 -51.56317516 94.87978004 -52 97 C-47.46457036 96.93056646 -42.9300144 96.84234047 -38.39526367 96.73754883 C-36.85630074 96.70453079 -35.31722344 96.67642878 -33.77807617 96.65356445 C-19.73343847 96.52349627 -19.73343847 96.52349627 -7 91 C-8.12451727 93.9719385 -9.22293791 96.33440687 -11 99 C-13.29055786 99.36076355 -13.29055786 99.36076355 -16.18408203 99.34057617 C-17.80553635 99.34023628 -17.80553635 99.34023628 -19.45974731 99.33988953 C-20.63060883 99.32440567 -21.80147034 99.30892181 -23.0078125 99.29296875 C-24.20356903 99.28872391 -25.39932556 99.28447906 -26.63131714 99.28010559 C-30.46277071 99.26326902 -34.29370453 99.22560684 -38.125 99.1875 C-40.71744034 99.17245964 -43.30988889 99.15877011 -45.90234375 99.14648438 C-52.26840748 99.11334918 -58.63416662 99.0631003 -65 99 C-65 98.34 -65 97.68 -65 97 C-60.545 96.505 -60.545 96.505 -56 96 C-56.66 95.01 -57.32 94.02 -58 93 C-58.9225785 87.12538469 -56.43660983 83.89239856 -53.19921875 79.3046875 C-52.69513489 78.56698624 -52.19105103 77.82928497 -51.67169189 77.06922913 C-50.02280104 74.66228195 -48.35509037 72.26901941 -46.6875 69.875 C-45.54938721 68.21789062 -44.41275975 66.55976016 -43.27758789 64.90063477 C-39.86719815 59.92300269 -36.43506703 54.96061999 -33 50 C-29.71694871 45.25348032 -26.44037953 40.50269515 -23.17861938 35.74151611 C-21.95685028 33.9656264 -20.72351408 32.19820624 -19.48901367 30.43115234 C-18.7591626 29.36977051 -18.02931152 28.30838867 -17.27734375 27.21484375 C-16.64046631 26.29823975 -16.00358887 25.38163574 -15.34741211 24.43725586 C-13.67744952 21.88070911 -13.67744952 21.88070911 -14 18 C-18.25004671 17.92514144 -22.49973134 17.87106833 -26.75024414 17.83520508 C-28.19236955 17.82023492 -29.63445036 17.79985132 -31.07641602 17.77368164 C-45.52720529 17.36115318 -45.52720529 17.36115318 -58 24 C-56.125 18.25 -56.125 18.25 -55 16 C-39.49 15.67 -23.98 15.34 -8 15 C-8.66 14.01 -9.32 13.02 -10 12 C-8.824375 12.2475 -8.824375 12.2475 -7.625 12.5 C-4.3481673 13.12415861 -3.22221 13.07407 0 12 C0 8.04 0 4.08 0 0 Z " fill="#F6F8FC" transform="translate(137,181)"/>
<path d="M0 0 C2.77250576 3.34151722 4.38511641 6.83656938 6.1015625 10.8125 C6.38349457 11.46323486 6.66542664 12.11396973 6.9559021 12.78442383 C7.54834403 14.15498894 8.13819163 15.52667807 8.72558594 16.89941406 C9.62314467 18.99566686 10.52964097 21.0878781 11.4375 23.1796875 C16.24868653 34.3354998 16.24868653 34.3354998 17 38 C15.948125 37.505 14.89625 37.01 13.8125 36.5 C7.78966031 34.25619698 -0.065338 33.3074359 -6.09765625 35.90234375 C-7.86328809 37.07888176 -7.86328809 37.07888176 -10 39 C-10.66 39 -11.32 39 -12 39 C-14.89743027 45.20877916 -16.93263774 51.9992589 -15.0625 58.75 C-13.16369134 63.4348336 -10.40712919 66.52361312 -6 69 C-3.02595497 69.97873978 -0.10149542 70.59209357 3 71 C3 71.66 3 72.32 3 73 C-11.19 73 -25.38 73 -40 73 C-40 72.34 -40 71.68 -40 71 C-39.39671875 70.85304688 -38.7934375 70.70609375 -38.171875 70.5546875 C-37.37265625 70.33039063 -36.5734375 70.10609375 -35.75 69.875 C-34.56664062 69.56175781 -34.56664062 69.56175781 -33.359375 69.2421875 C-27.27045235 66.03643021 -25.06395578 57.79302503 -22.62890625 51.7734375 C-22.22469955 50.7893692 -21.82049286 49.8053009 -21.40403748 48.79141235 C-20.11736303 45.65509006 -18.83974752 42.51517152 -17.5625 39.375 C-16.70829159 37.28751099 -15.85347958 35.20026886 -14.99804688 33.11328125 C-13.37231396 29.14536269 -11.74957846 25.176242 -10.12939453 21.20605469 C-7.78181482 15.45854534 -5.40470671 9.72386844 -3 4 C-2.34 4 -1.68 4 -1 4 C-0.67 2.68 -0.34 1.36 0 0 Z " fill="#3F5EBB" transform="translate(383,207)"/>
<path d="M0 0 C6.93 0 13.86 0 21 0 C20.34 0.66 19.68 1.32 19 2 C18.96327128 8.13369601 22.54888596 11.76216625 26.25 16.25 C27.52100429 17.83371432 28.78915382 19.41972324 30.0546875 21.0078125 C30.7053418 21.82282227 31.35599609 22.63783203 32.02636719 23.47753906 C35.2591289 27.60926766 38.32128991 31.86007044 41.375 36.125 C41.93993164 36.91293945 42.50486328 37.70087891 43.08691406 38.51269531 C44.39409905 40.33981129 45.69866761 42.16871324 47 44 C47.66 42.68 48.32 41.36 49 40 C49.2475 41.89105469 49.2475 41.89105469 49.5 43.8203125 C50.94339657 50.3079735 54.8986512 54.79850534 59 59.875 C60.45862549 61.72633235 61.91697153 63.57788492 63.375 65.4296875 C64.02210938 66.23647949 64.66921875 67.04327148 65.3359375 67.87451172 C68.08294607 71.38323481 69.25357312 73.25172749 69.125 77.6875 C69.10695313 78.49574219 69.08890625 79.30398438 69.0703125 80.13671875 C69.04710937 80.75160156 69.02390625 81.36648438 69 82 C66.2156005 81.9896298 64.50827709 81.49619496 62.50048828 79.53613281 C60.78659445 77.44381895 59.16581324 75.30328207 57.5625 73.125 C56.95486816 72.32143066 56.34723633 71.51786133 55.72119141 70.68994141 C53.7985757 68.13783608 51.89716136 65.57106967 50 63 C49.39881348 62.18982422 48.79762695 61.37964844 48.17822266 60.54492188 C45.23294486 56.57488413 42.30177239 52.59489165 39.3828125 48.60546875 C35.77941832 43.6860434 32.1200167 38.80973557 28.43310547 33.95263672 C23.48188939 27.39423873 18.78323073 20.69652302 14 14 C13.67 35.78 13.34 57.56 13 80 C10.54729487 76.3209423 10.77071693 74.58934361 10.81713867 70.20532227 C10.82178131 69.51880585 10.82642395 68.83228943 10.83120728 68.12496948 C10.84959035 65.85520579 10.88311781 63.58597277 10.91796875 61.31640625 C10.93652879 59.73844436 10.95461405 58.16047682 10.97224426 56.58250427 C11.01175483 53.2745137 11.0591213 49.96674525 11.11157227 46.65893555 C11.17784749 42.42098028 11.22149319 38.1831369 11.25883007 33.94484043 C11.29058639 30.68559273 11.33597581 27.42664066 11.38530922 24.16761589 C11.40701227 22.60517986 11.42410048 21.04267265 11.43648338 19.48013496 C11.45553413 17.29430155 11.49332571 15.10955727 11.53588867 12.92407227 C11.55302414 11.68069595 11.57015961 10.43731964 11.58781433 9.15626526 C12 6 12 6 15 2 C10.05 1.67 5.1 1.34 0 1 C0 0.67 0 0.34 0 0 Z " fill="#F1F3FA" transform="translate(260,197)"/>
<path d="M0 0 C5.5174944 -0.6896868 9.04519702 -0.44252427 13.5625 3 C14.72580245 3.97962311 15.87827726 4.97302769 17 6 C17.99 5.01 18.98 4.02 20 3 C20.66 3.33 21.32 3.66 22 4 C21.34 4.66 20.68 5.32 20 6 C20.66 6.33 21.32 6.66 22 7 C21.67 9.31 21.34 11.62 21 14 C21.99 14 22.98 14 24 14 C24 14.66 24 15.32 24 16 C23.34 16 22.68 16 22 16 C21.67 18.97 21.34 21.94 21 25 C21.78375 25.103125 22.5675 25.20625 23.375 25.3125 C26 26 26 26 28 29 C27.4225 28.814375 26.845 28.62875 26.25 28.4375 C23.75807903 27.95295981 22.36040848 28.10467265 20 29 C19.67 29.66 19.34 30.32 19 31 C20.65 31 22.3 31 24 31 C24 31.99 24 32.98 24 34 C23.01 33.731875 22.02 33.46375 21 33.1875 C15.98535979 32.4332655 12.87703782 35.14279169 9 38 C8.01 38.66 7.02 39.32 6 40 C6.99 40.66 7.98 41.32 9 42 C1 42 1 42 -1 41 C-1 41.99 -1 42.98 -1 44 C-1.66 44 -2.32 44 -3 44 C-3 43.34 -3 42.68 -3 42 C-5.97 42.66 -8.94 43.32 -12 44 C-9.08946311 41.5667105 -6.73729733 40.49698581 -3.0625 39.625 C1.48649332 38.35691779 4.00120191 36.77268146 7 33 C8.5635348 29.87293041 8.39958487 26.42017557 8 23 C6.33045181 19.77595022 6.33045181 19.77595022 3.375 19.3125 C2.59125 19.209375 1.8075 19.10625 1 19 C1.33 20.65 1.66 22.3 2 24 C1.01 23.67 0.02 23.34 -1 23 C-1 22.01 -1 21.02 -1 20 C-3.9070643 17.83973235 -3.9070643 17.83973235 -7 16 C-8 15 -8 15 -8.375 11.3125 C-8.35732355 6.40728615 -6.38494718 4.38494718 -3 1 C-2.34 1.33 -1.68 1.66 -1 2 C-0.67 1.34 -0.34 0.68 0 0 Z " fill="#3152B6" transform="translate(157,144)"/>
<path d="M0 0 C2.83060008 1.41530004 3.0747447 3.12256854 4.27734375 6.0234375 C4.70853516 7.044375 5.13972656 8.0653125 5.58398438 9.1171875 C6.4829851 11.28101608 7.38142687 13.44507699 8.27929688 15.609375 C8.71177734 16.63289063 9.14425781 17.65640625 9.58984375 18.7109375 C9.98034912 19.65243652 10.37085449 20.59393555 10.77319336 21.56396484 C11.82637115 24.01352548 11.82637115 24.01352548 13.58813477 25.45556641 C15.65000896 27.71104214 15.51466073 30.00196603 16 33 C17.04621177 35.77497197 18.32458895 38.43225086 19.59765625 41.109375 C20.32424513 42.68458354 21.05013471 44.2601148 21.77539062 45.8359375 C22.91529569 48.29262523 24.0607251 50.74624861 25.21899414 53.19433594 C34.01862299 71.8580497 34.01862299 71.8580497 32 79 C30.51152089 81.22871479 29.18195949 82.36353038 27 84 C25.515 83.505 25.515 83.505 24 83 C24.33 82.67 24.66 82.34 25 82 C25 70.51040122 19.26069599 58.32079767 11.28515625 50.1875 C10.86105469 49.795625 10.43695313 49.40375 10 49 C11.485 48.505 11.485 48.505 13 48 C12.42499756 46.72153198 12.42499756 46.72153198 11.83837891 45.41723633 C10.40998886 42.24003126 8.98252 39.06241563 7.55566406 35.88452148 C6.93916824 34.51196113 6.32231093 33.13956308 5.70507812 31.76733398 C4.81544306 29.78933087 3.92713066 27.81073827 3.0390625 25.83203125 C2.50490723 24.64327393 1.97075195 23.4545166 1.42041016 22.22973633 C0.2221608 19.50515043 -0.91683369 16.77190029 -2 14 C-2.99 14.66 -3.98 15.32 -5 16 C-4.34309381 12.21760329 -3.279869 8.78158474 -1.9375 5.1875 C-1.57527344 4.21167969 -1.21304687 3.23585937 -0.83984375 2.23046875 C-0.42412109 1.12638672 -0.42412109 1.12638672 0 0 Z " fill="#F5F7FB" transform="translate(386,195)"/>
<path d="M0 0 C2.84638939 3.41459113 4.57196182 7.17113578 6.3359375 11.2109375 C6.81004562 12.28003357 6.81004562 12.28003357 7.29373169 13.37072754 C8.32626479 15.70312499 9.35107143 18.03881362 10.375 20.375 C11.08637835 21.99114071 11.79796898 23.607188 12.50976562 25.22314453 C13.9636177 28.52635846 15.41382186 31.83114735 16.86230469 35.13671875 C18.55848608 39.00306818 20.27220807 42.86123355 21.99526978 46.71566772 C23.21776651 49.45404313 24.43115251 52.19638914 25.64239502 54.9397583 C26.21030913 56.22129362 26.78183822 57.50123357 27.3571167 58.77947998 C28.15468498 60.55409721 28.93706954 62.33551493 29.71875 64.1171875 C30.16154297 65.11347168 30.60433594 66.10975586 31.06054688 67.13623047 C32.4679225 71.42638538 32.64176927 74.65534057 30.6875 78.75 C29 81 29 81 26 83 C24.515 82.505 24.515 82.505 23 82 C23.66 82 24.32 82 25 82 C25.2535535 77.41186892 24.61017978 74.41683943 22.6640625 70.26953125 C21.93316406 68.69461914 21.93316406 68.69461914 21.1875 67.08789062 C20.671875 66.00701172 20.15625 64.92613281 19.625 63.8125 C19.11710937 62.72001953 18.60921875 61.62753906 18.0859375 60.50195312 C15.33229088 54.5909547 15.33229088 54.5909547 12 49 C11.54808821 47.73686666 11.1381249 46.45837901 10.7578125 45.171875 C8.45218932 38.0084923 5.1623171 31.25275594 2.03759766 24.41845703 C1.22648584 22.64030537 0.42175637 20.85924674 -0.3828125 19.078125 C-0.86121582 18.03043945 -1.33961914 16.98275391 -1.83251953 15.90332031 C-4.46833212 9.3485141 -4.46833212 9.3485141 -3.22265625 5.76171875 C-2.83980469 5.07722656 -2.45695313 4.39273438 -2.0625 3.6875 C-1.68222656 2.99011719 -1.30195313 2.29273438 -0.91015625 1.57421875 C-0.60980469 1.05472656 -0.30945313 0.53523437 0 0 Z " fill="#F6F7FB" transform="translate(184,196)"/>
<path d="M0 0 C6.6 0 13.2 0 20 0 C18.35 1.32 16.7 2.64 15 4 C14.26654134 7.13371164 14.26654134 7.13371164 14.40405273 10.69287109 C14.3999942 11.35681381 14.39593567 12.02075653 14.39175415 12.70481873 C14.38624524 14.14256177 14.39222241 15.58038492 14.40841484 17.01804733 C14.43386041 19.29732333 14.42903022 21.57479294 14.41651917 23.85415649 C14.39577599 28.69463648 14.41544077 33.53455694 14.4375 38.375 C14.45863031 43.97884244 14.46311016 49.58210177 14.43699837 55.18593216 C14.43364713 57.42526662 14.45482726 59.66347777 14.47740173 61.90267944 C14.47488901 63.28456869 14.47132752 64.66645656 14.46655273 66.04833984 C14.47275131 67.24872894 14.47894989 68.44911804 14.4853363 69.68588257 C13.74539092 74.73859728 11.47010004 77.88846095 7.4375 80.9375 C5 82 5 82 2 81 C2.48739151 80.63880569 2.97478302 80.27761139 3.47694397 79.9054718 C5.6934635 77.13241856 5.37175742 75.03225596 5.36889648 71.51245117 C5.37266296 70.85840805 5.37642944 70.20436493 5.38031006 69.53050232 C5.38674167 68.111309 5.38641325 66.69207261 5.38012505 65.27287865 C5.37101436 63.02336771 5.3812384 60.77469035 5.39674377 58.52522278 C5.43683806 52.13035394 5.43805021 45.73554978 5.43579102 39.34057617 C5.4357398 35.42713536 5.45496518 31.51414235 5.48512459 27.60082436 C5.495923 25.39042014 5.48383413 23.1808809 5.47129822 20.97050476 C5.4802076 19.60557208 5.49028371 18.24064636 5.50170898 16.87573242 C5.50154282 15.69009201 5.50137665 14.5044516 5.50120544 13.28288269 C6.23484187 8.45435702 8.59925839 5.40074161 12 2 C8.04 1.67 4.08 1.34 0 1 C0 0.67 0 0.34 0 0 Z " fill="#F5F6FB" transform="translate(232,197)"/>
<path d="M0 0 C0.33 0.99 0.66 1.98 1 3 C0.67 3.66 0.34 4.32 0 5 C1.98 3.35 3.96 1.7 6 0 C6.66 0.33 7.32 0.66 8 1 C7.57847656 1.47050781 7.15695313 1.94101563 6.72265625 2.42578125 C6.17480469 3.04839844 5.62695312 3.67101562 5.0625 4.3125 C4.51722656 4.92738281 3.97195312 5.54226562 3.41015625 6.17578125 C-0.09396374 10.70881181 0.57859983 16.56081634 1 22 C2.63853638 26.91560915 5.47236476 30.43627492 10 33 C12.96867191 33.93619882 15.92350792 34.54194451 19 35 C19 35.66 19 36.32 19 37 C4.81 37 -9.38 37 -24 37 C-24 36.34 -24 35.68 -24 35 C-23.38511719 34.81824219 -22.77023438 34.63648438 -22.13671875 34.44921875 C-21.32847656 34.19785156 -20.52023438 33.94648438 -19.6875 33.6875 C-18.88699219 33.44386719 -18.08648437 33.20023437 -17.26171875 32.94921875 C-13.57495397 31.40192369 -12.29528367 29.6148119 -10.55786133 25.99731445 C-10.0708374 24.7980835 -9.58381348 23.59885254 -9.08203125 22.36328125 C-8.81992355 21.72384079 -8.55781586 21.08440033 -8.2877655 20.42558289 C-7.4555595 18.39070579 -6.63392174 16.35175099 -5.8125 14.3125 C-5.24873964 12.92875401 -4.68429412 11.54528696 -4.11914062 10.16210938 C-2.7381404 6.7779353 -1.36658328 3.39002557 0 0 Z " fill="#3B5ABA" transform="translate(164,243)"/>
<path d="M0 0 C1 2 1 2 0.9375 5.75 C0.9375 10.66156212 1.21004588 14.17547595 4.8203125 17.85546875 C10.01782979 22.24709922 14.29258444 24.04179778 21 25 C21 25.66 21 26.32 21 27 C6.81 27 -7.38 27 -22 27 C-22 26.34 -22 25.68 -22 25 C-21.39671875 24.85304688 -20.7934375 24.70609375 -20.171875 24.5546875 C-16.19756756 23.43931735 -13.59324806 22.6426854 -10.75 19.5625 C-8.25028896 14.47380252 -6.08152013 9.27204689 -4 4 C-3.34 4 -2.68 4 -2 4 C-1.34 2.68 -0.68 1.36 0 0 Z " fill="#3A5AB9" transform="translate(365,253)"/>
<path d="M0 0 C3.16115776 1.36983503 3.9927092 1.9890638 6 5 C6.5775 4.7525 7.155 4.505 7.75 4.25 C10 4 10 4 12.25 5.6875 C14 8 14 8 14 12 C15.98 11.67 17.96 11.34 20 11 C20.33 10.01 20.66 9.02 21 8 C21.66 8 22.32 8 23 8 C23.66 9.32 24.32 10.64 25 12 C25.33 11.34 25.66 10.68 26 10 C26.66 10 27.32 10 28 10 C28 12.64 28 15.28 28 18 C26.35 18.66 24.7 19.32 23 20 C22.34 19.34 21.68 18.68 21 18 C21 17.01 21 16.02 21 15 C18.03 14.505 18.03 14.505 15 14 C14.7226499 17.18490007 14.7226499 17.18490007 17 20 C16.34 20 15.68 20 15 20 C15 20.66 15 21.32 15 22 C13.68 21.67 12.36 21.34 11 21 C10.8453125 22.175625 10.8453125 22.175625 10.6875 23.375 C10 26 10 26 7 28 C5.87167643 25.45976352 4.74726572 22.91791162 3.625 20.375 C3.30789063 19.66214844 2.99078125 18.94929688 2.6640625 18.21484375 C0.89403488 14.19540604 -0.68866374 10.19892519 -2 6 C-1.34 6 -0.68 6 0 6 C0 4.02 0 2.04 0 0 Z " fill="#758BCE" transform="translate(390,191)"/>
<path d="M0 0 C0.66 0.33 1.32 0.66 2 1 C1.34 1.66 0.68 2.32 0 3 C0.66 3.33 1.32 3.66 2 4 C1.67 6.31 1.34 8.62 1 11 C1.99 11 2.98 11 4 11 C4 11.66 4 12.32 4 13 C3.34 13 2.68 13 2 13 C1.67 15.97 1.34 18.94 1 22 C1.78375 22.103125 2.5675 22.20625 3.375 22.3125 C6 23 6 23 8 26 C7.4225 25.814375 6.845 25.62875 6.25 25.4375 C3.75807903 24.95295981 2.36040848 25.10467265 0 26 C-0.33 26.66 -0.66 27.32 -1 28 C0.65 28 2.3 28 4 28 C4 28.99 4 29.98 4 31 C3.01 30.731875 2.02 30.46375 1 30.1875 C-4.01464021 29.4332655 -7.12296218 32.14279169 -11 35 C-11.99 35.66 -12.98 36.32 -14 37 C-13.01 37.66 -12.02 38.32 -11 39 C-19 39 -19 39 -21 38 C-21 38.99 -21 39.98 -21 41 C-21.66 41 -22.32 41 -23 41 C-23 40.34 -23 39.68 -23 39 C-25.97 39.66 -28.94 40.32 -32 41 C-29.08946311 38.5667105 -26.73729733 37.49698581 -23.0625 36.625 C-18.45794302 35.28906815 -15.78689759 34.09325583 -13 30 C-12.28704672 27.46922433 -11.80934954 24.97989704 -11.40234375 22.3828125 C-10.95486095 19.73267165 -10.13535095 17.43289488 -9 15 C-2.25 13.875 -2.25 13.875 0 15 C-0.25136719 14.25234375 -0.50273437 13.5046875 -0.76171875 12.734375 C-1.06722656 11.74953125 -1.37273437 10.7646875 -1.6875 9.75 C-2.00074219 8.77546875 -2.31398437 7.8009375 -2.63671875 6.796875 C-3 4 -3 4 -1.58203125 1.640625 C-1.05996094 1.09921875 -0.53789062 0.5578125 0 0 Z " fill="#3254B7" transform="translate(177,147)"/>
<path d="M0 0 C2.69990662 1.79993774 4.5418865 3.083773 6 6 C6.41314256 10.6478538 5.78987316 13.24440152 3 17 C-0.23176757 18.61588379 -3.50615283 18.57451407 -7 18 C-9.99028679 16.00647547 -11.57809415 14.59744505 -12.51171875 11.0625 C-12.70293629 8.81888086 -12.61632427 7.16806267 -12 5 C-8.36438899 0.84501599 -5.54577572 -1.06195705 0 0 Z " fill="#2D4FB5" transform="translate(124,305)"/>
<path d="M0 0 C3.10787874 0.1828164 4.64747363 0.46391068 7.1875 2.1875 C9.64969772 5.88079658 9.97948683 8.9024344 9.1875 13.1875 C7.19397547 16.17778679 5.78494505 17.76559415 2.25 18.69921875 C0.00638086 18.89043629 -1.64443733 18.80382427 -3.8125 18.1875 C-7.10076203 15.31027073 -8.56181432 13.41585983 -9.4375 9.125 C-8.60880875 5.23015113 -6.79303881 3.73186239 -3.8125 1.1875 C-2.8125 0.1875 -2.8125 0.1875 0 0 Z " fill="#2B4DB4" transform="translate(377.8125,304.8125)"/>
<path d="M0 0 C5.53882983 -0.34617686 10.10730131 0.22029068 15 3 C18.60980654 6.34241346 20.91661149 9.47121074 21.1875 14.4375 C21 18 21 18 19 21 C18.01 21 17.02 21 16 21 C15.7525 21.61875 15.505 22.2375 15.25 22.875 C13.72610985 25.46561326 12.86546233 26.12444207 10 27 C6.5119459 26.85763044 4.67679427 26.61129805 2.0625 24.25 C0.72226133 21.41184751 1.09889922 19.94905709 2 17 C4.375 16.375 4.375 16.375 7 16 C7.66 16.66 8.32 17.32 9 18 C9.66 16.68 10.32 15.36 11 14 C12.32 14 13.64 14 15 14 C14.38722388 11.03824877 13.74627478 9.61941217 12 7 C10.68 7 9.36 7 8 7 C6.62517293 5.36739286 5.29352333 3.69774938 4 2 C1.88339573 0.68834743 1.88339573 0.68834743 0 0 Z " fill="#4563BD" transform="translate(143,192)"/>
<path d="M0 0 C1.65 0 3.3 0 5 0 C5 1.65 5 3.3 5 5 C4.01 5.495 4.01 5.495 3 6 C3.95865509 8.33075929 3.95865509 8.33075929 7 10 C6.360625 10.12375 5.72125 10.2475 5.0625 10.375 C4.381875 10.58125 3.70125 10.7875 3 11 C1.7763932 13.0745356 1.7763932 13.0745356 2 16 C1.34 16 0.68 16 0 16 C1.32 18.64 2.64 21.28 4 24 C3.01 24.33 2.02 24.66 1 25 C1.33 27.31 1.66 29.62 2 32 C1.01 31.34 0.02 30.68 -1 30 C-1.99 32.475 -1.99 32.475 -3 35 C-3.66 35 -4.32 35 -5 35 C-4.67 33.35 -4.34 31.7 -4 30 C-4.99 29.67 -5.98 29.34 -7 29 C-6.34 28.01 -5.68 27.02 -5 26 C-5.33 25.34 -5.66 24.68 -6 24 C-6 20.76138705 -5.3749149 18.90259811 -4 16 C-3.34 15.67 -2.68 15.34 -2 15 C-2 12.69 -2 10.38 -2 8 C-2.78375 8.515625 -3.5675 9.03125 -4.375 9.5625 C-5.24125 10.036875 -6.1075 10.51125 -7 11 C-7.66 10.67 -8.32 10.34 -9 10 C-8.360625 9.2575 -7.72125 8.515 -7.0625 7.75 C-5.21666593 5.2888879 -4.43930826 3.96533074 -4 1 C-2.68 1.33 -1.36 1.66 0 2 C0 1.34 0 0.68 0 0 Z " fill="#B2BEE3" transform="translate(426,236)"/>
<path d="M0 0 C2.97 0.33 5.94 0.66 9 1 C9.13277344 1.85464844 9.26554687 2.70929688 9.40234375 3.58984375 C9.57894531 4.69457031 9.75554687 5.79929688 9.9375 6.9375 C10.11152344 8.03964844 10.28554688 9.14179688 10.46484375 10.27734375 C10.71845136 12.90426929 10.71845136 12.90426929 12 14 C11.71269945 16.33944736 11.38063221 18.6739143 11 21 C9.3125 21.75 9.3125 21.75 7 22 C4.25 20.0625 4.25 20.0625 2 18 C2.33 16.35 2.66 14.7 3 13 C2.01 12.67 1.02 12.34 0 12 C0 11.34 0 10.68 0 10 C-0.66 9.67 -1.32 9.34 -2 9 C-1.125 2.25 -1.125 2.25 0 0 Z " fill="#8497D3" transform="translate(416,213)"/>
<path d="M0 0 C2.25726011 1.89121793 3.68646424 3.37292849 5 6 C4.9129796 7.71233688 4.75902838 9.42175406 4.5625 11.125 C4.46066406 12.03507813 4.35882813 12.94515625 4.25390625 13.8828125 C4.17011719 14.58148438 4.08632812 15.28015625 4 16 C3.01 16 2.02 16 1 16 C0.34 14.02 -0.32 12.04 -1 10 C-4.6088584 10.69795395 -4.6088584 10.69795395 -8.125 11.75 C-10 12 -10 12 -11.8125 11 C-13 9 -13 9 -13.0625 5.5 C-12 2 -12 2 -9.3125 0 C-5.57696776 -1.12770785 -3.69753263 -1.20571716 0 0 Z " fill="#4A67BF" transform="translate(139,172)"/>
<path d="M0 0 C3 2 3 2 4 4.5625 C4.33 5.366875 4.66 6.17125 5 7 C5.99 7.33 6.98 7.66 8 8 C7.34 8 6.68 8 6 8 C6 8.99 6 9.98 6 11 C8.97 11.495 8.97 11.495 12 12 C11.67 12.66 11.34 13.32 11 14 C13.67247634 16.34287418 13.67247634 16.34287418 17 17 C17 17.66 17 18.32 17 19 C16.34 19 15.68 19 15 19 C14.67 20.32 14.34 21.64 14 23 C12.35 23 10.7 23 9 23 C9 22.34 9 21.68 9 21 C10.32 21.33 11.64 21.66 13 22 C12.29660434 19.49034386 12.29660434 19.49034386 11 17 C8.95894361 16.11306697 8.95894361 16.11306697 7 16 C7.33 15.34 7.66 14.68 8 14 C6.72125 14.268125 5.4425 14.53625 4.125 14.8125 C3.40570313 14.96332031 2.68640625 15.11414063 1.9453125 15.26953125 C-0.37046549 15.92308838 -0.37046549 15.92308838 -2 19 C-5.125 20.1875 -5.125 20.1875 -8 21 C-8 20.34 -8 19.68 -8 19 C-9.32 18.34 -10.64 17.68 -12 17 C-10.68 16.34 -9.36 15.68 -8 15 C-8.66 14.01 -9.32 13.02 -10 12 C-9.21625 12.165 -8.4325 12.33 -7.625 12.5 C-4.3481673 13.12415861 -3.22221 13.07407 0 12 C0 8.04 0 4.08 0 0 Z " fill="#3253B6" transform="translate(137,181)"/>
<path d="M0 0 C0.66 0.33 1.32 0.66 2 1 C2.49318182 7.41136364 2.49318182 7.41136364 0.0625 10.3125 C-0.618125 10.869375 -1.29875 11.42625 -2 12 C-2.33 12.66 -2.66 13.32 -3 14 C-2.34 14.33 -1.68 14.66 -1 15 C-1 18 -1 18 -1.9375 19.8125 C-3.24430347 22.50297774 -3.59786703 25.05102485 -4 28 C-4.33 28 -4.66 28 -5 28 C-5.16435547 27.18208984 -5.16435547 27.18208984 -5.33203125 26.34765625 C-6.19747981 22.23149848 -7.19732985 18.41272877 -8.75 14.5 C-10.47967454 9.62076884 -9.58275542 5.81658663 -8 1 C-7.38382812 1.185625 -6.76765625 1.37125 -6.1328125 1.5625 C-3.40575828 2.12189574 -2.39398148 1.27679012 0 0 Z " fill="#3052B6" transform="translate(423,243)"/>
<path d="M0 0 C1.8125 0.0625 1.8125 0.0625 4 1 C5.75 4.5625 5.75 4.5625 7 8 C7.33 8 7.66 8 8 8 C8 10.97 8 13.94 8 17 C6.80375 16.814375 5.6075 16.62875 4.375 16.4375 C0.70799398 15.96202675 -2.35932784 16.28962494 -6 17 C-7 16 -7 16 -7.25 13.625 C-7 11 -7 11 -5.75 9.125 C-4 8 -4 8 -1.8125 8.3125 C-1.214375 8.539375 -0.61625 8.76625 0 9 C0.33 8.01 0.66 7.02 1 6 C0.01 5.34 -0.98 4.68 -2 4 C-1.34 2.68 -0.68 1.36 0 0 Z " fill="#2C4EB4" transform="translate(405,204)"/>
<path d="M0 0 C0.33 0.66 0.66 1.32 1 2 C1.66 2 2.32 2 3 2 C3.33 1.34 3.66 0.68 4 0 C4.86883706 1.57533086 5.71959068 3.16064509 6.5625 4.75 C7.03816406 5.63171875 7.51382812 6.5134375 8.00390625 7.421875 C9.07998186 10.20701188 9.06528748 11.26980214 8 14 C6.35 14 4.7 14 3 14 C3 14.66 3 15.32 3 16 C-1 16 -1 16 -3 15 C-4.375 12.4375 -4.375 12.4375 -5 9 C-3.90383709 5.7877151 -2.42940066 2.42940066 0 0 Z " fill="#2E50B5" transform="translate(411,229)"/>
<path d="M0 0 C0 3.67216395 -0.75589248 5.12243417 -3 8 C-5.41081238 8.60127258 -5.41081238 8.60127258 -8.29760742 8.56762695 C-9.37850143 8.5672493 -10.45939545 8.56687164 -11.57304382 8.56648254 C-12.73874405 8.54067612 -13.90444427 8.51486969 -15.10546875 8.48828125 C-16.29981033 8.48120651 -17.49415192 8.47413177 -18.72468567 8.46684265 C-22.54625602 8.43881302 -26.36637111 8.37605358 -30.1875 8.3125 C-32.7753695 8.28742845 -35.36326191 8.2646133 -37.95117188 8.24414062 C-44.30127932 8.18895798 -50.65053572 8.10524449 -57 8 C-57 7.34 -57 6.68 -57 6 C-55.2300132 5.80467039 -53.45895721 5.61901118 -51.6875 5.4375 C-50.70136719 5.33308594 -49.71523437 5.22867187 -48.69921875 5.12109375 C-46 5 -46 5 -43 6 C-38.52993557 6.09885519 -34.06458341 5.94659469 -29.59619141 5.81298828 C-27.40405802 5.75082402 -25.21214812 5.70898457 -23.01953125 5.66796875 C-10.55018888 5.69135356 -10.55018888 5.69135356 0 0 Z " fill="#798FD0" transform="translate(129,272)"/>
<path d="M0 0 C2.3125 -0.25 2.3125 -0.25 5 0 C7.95304802 2.44390181 8.00894121 4.09388274 8.375 7.9375 C8.19904233 11.7311474 7.53606504 14.05489222 5 17 C2.05531852 19.23340576 -0.60632433 21.14294109 -4.4375 20.75 C-4.953125 20.5025 -5.46875 20.255 -6 20 C-5.25 18.0625 -5.25 18.0625 -4 16 C-1.9375 15.375 -1.9375 15.375 0 15 C1.39457694 12.21084611 1.1821922 10.09726736 1 7 C0.3530635 5.3255761 -0.30959426 3.65697379 -1 2 C-0.67 1.34 -0.34 0.68 0 0 Z " fill="#3052B6" transform="translate(158,163)"/>
<path d="M0 0 C2.31 0.66 4.62 1.32 7 2 C7.75 3.75 7.75 3.75 8 6 C6.4375 8.3125 6.4375 8.3125 4 10 C1.24609375 9.671875 1.24609375 9.671875 -2 9 C-3.05960938 8.82339844 -4.11921875 8.64679688 -5.2109375 8.46484375 C-6.77714844 8.20380859 -6.77714844 8.20380859 -8.375 7.9375 C-9.43460938 7.76089844 -10.49421875 7.58429688 -11.5859375 7.40234375 C-12.38257813 7.26957031 -13.17921875 7.13679687 -14 7 C-13 4 -13 4 -9.6875 2.3125 C-6 1 -6 1 -2 1 C-2 1.66 -2 2.32 -2 3 C-1.34 3 -0.68 3 0 3 C0 2.01 0 1.02 0 0 Z " fill="#3051B6" transform="translate(156,185)"/>
<path d="M0 0 C1.98 0 3.96 0 6 0 C6 0.66 6 1.32 6 2 C5.34 2 4.68 2 4 2 C4 7.61 4 13.22 4 19 C0.74435365 16.39548292 -1.70856166 14.42974938 -4.3125 11.375 C-4.82425781 10.78460938 -5.33601563 10.19421875 -5.86328125 9.5859375 C-7 8 -7 8 -7 6 C-7.66 6 -8.32 6 -9 6 C-9 9.63 -9 13.26 -9 17 C-8.34 17.33 -7.68 17.66 -7 18 C-8.98 18 -10.96 18 -13 18 C-12.34 17.67 -11.68 17.34 -11 17 C-11 11.72 -11 6.44 -11 1 C-7.09224671 2.95387664 -5.52377661 4.38892729 -2.75 7.625 C-2.04359375 8.44226563 -1.3371875 9.25953125 -0.609375 10.1015625 C-0.07828125 10.72804688 0.4528125 11.35453125 1 12 C1.33 8.37 1.66 4.74 2 1 C1.34 0.67 0.68 0.34 0 0 Z " fill="#EBEEF8" transform="translate(424,305)"/>
<path d="M0 0 C3.10787874 0.1828164 4.64747363 0.46391068 7.1875 2.1875 C9.64969772 5.88079658 9.97948683 8.9024344 9.1875 13.1875 C7.19397547 16.17778679 5.78494505 17.76559415 2.25 18.69921875 C0.00638086 18.89043629 -1.64443733 18.80382427 -3.8125 18.1875 C-7.10076203 15.31027073 -8.56181432 13.41585983 -9.4375 9.125 C-8.60880875 5.23015113 -6.79303881 3.73186239 -3.8125 1.1875 C-2.8125 0.1875 -2.8125 0.1875 0 0 Z M-4.6875 3.25 C-6.48690223 6.3489705 -6.23577427 8.68037033 -5.8125 12.1875 C-4.35616876 15.21688694 -4.35616876 15.21688694 -1.8125 17.1875 C1.23090127 18.02099951 1.23090127 18.02099951 4.1875 17.1875 C6.53893752 14.52253748 7.1241123 12.63121387 7.625 9.125 C7.39635588 6.1216267 7.39635588 6.1216267 5.5625 3.8125 C2.08102736 1.43043977 -0.95784223 1.13652727 -4.6875 3.25 Z " fill="#CAD2EC" transform="translate(377.8125,304.8125)"/>
<path d="M0 0 C0.042721 1.66611905 0.04063832 3.33382885 0 5 C-0.33 5.33 -0.66 5.66 -1 6 C-0.34 6.33 0.32 6.66 1 7 C1.33 6.01 1.66 5.02 2 4 C2.99 5.65 3.98 7.3 5 9 C4.01 9.33 3.02 9.66 2 10 C2.33 12.31 2.66 14.62 3 17 C2.01 16.34 1.02 15.68 0 15 C-0.99 17.475 -0.99 17.475 -2 20 C-2.66 20 -3.32 20 -4 20 C-3.67 18.35 -3.34 16.7 -3 15 C-3.99 14.67 -4.98 14.34 -6 14 C-5.34 13.01 -4.68 12.02 -4 11 C-4.33 10.34 -4.66 9.68 -5 9 C-5 5.76138705 -4.3749149 3.90259811 -3 1 C-1 0 -1 0 0 0 Z " fill="#5C77C6" transform="translate(425,251)"/>
<path d="M0 0 C2.69990662 1.79993774 4.5418865 3.083773 6 6 C6.41314256 10.6478538 5.78987316 13.24440152 3 17 C-0.23176757 18.61588379 -3.50615283 18.57451407 -7 18 C-9.99028679 16.00647547 -11.57809415 14.59744505 -12.51171875 11.0625 C-12.70293629 8.81888086 -12.61632427 7.16806267 -12 5 C-8.36438899 0.84501599 -5.54577572 -1.06195705 0 0 Z M-8.7265625 3.2421875 C-10.39730552 5.54842787 -10.23792166 6.7082949 -9.875 9.5 C-9.78992188 10.2734375 -9.70484375 11.046875 -9.6171875 11.84375 C-8.89037492 14.38299397 -8.0907497 15.40942965 -6 17 C-1.89987743 17.53430982 -1.89987743 17.53430982 1.6640625 15.7578125 C3.35152036 13.53747321 3.4026536 12.26536019 3.375 9.5 C3.38273437 8.7265625 3.39046875 7.953125 3.3984375 7.15625 C2.90414847 4.48127407 2.17890019 3.59652134 0 2 C-4.62958087 1.41514598 -4.62958087 1.41514598 -8.7265625 3.2421875 Z " fill="#D2D9EF" transform="translate(124,305)"/>
<path d="M0 0 C1.71662123 0.09629649 3.43693118 0.13075026 5.15625 0.1328125 C6.17847656 0.13410156 7.20070312 0.13539063 8.25390625 0.13671875 C9.86072266 0.13091797 9.86072266 0.13091797 11.5 0.125 C12.57121094 0.12886719 13.64242187 0.13273437 14.74609375 0.13671875 C15.76832031 0.13542969 16.79054687 0.13414062 17.84375 0.1328125 C18.78412109 0.13168457 19.72449219 0.13055664 20.69335938 0.12939453 C23.02769872 0.15132401 23.02769872 0.15132401 25 -1 C27.1640625 -0.66015625 27.1640625 -0.66015625 29.625 -0.0625 C30.44226563 0.13214844 31.25953125 0.32679688 32.1015625 0.52734375 C32.72804687 0.68332031 33.35453125 0.83929688 34 1 C34 1.66 34 2.32 34 3 C19.81 3 5.62 3 -9 3 C-9 2.34 -9 1.68 -9 1 C-2.25 -1.125 -2.25 -1.125 0 0 Z " fill="#8094D2" transform="translate(149,277)"/>
<path d="M0 0 C1.71662123 0.09629649 3.43693118 0.13075026 5.15625 0.1328125 C6.17847656 0.13410156 7.20070313 0.13539063 8.25390625 0.13671875 C9.86072266 0.13091797 9.86072266 0.13091797 11.5 0.125 C12.57121094 0.12886719 13.64242188 0.13273437 14.74609375 0.13671875 C15.76832031 0.13542969 16.79054688 0.13414062 17.84375 0.1328125 C18.78412109 0.13168457 19.72449219 0.13055664 20.69335938 0.12939453 C23.02769872 0.15132401 23.02769872 0.15132401 25 -1 C27.1640625 -0.66015625 27.1640625 -0.66015625 29.625 -0.0625 C30.44226563 0.13214844 31.25953125 0.32679688 32.1015625 0.52734375 C32.72804688 0.68332031 33.35453125 0.83929688 34 1 C34 1.66 34 2.32 34 3 C19.81 3 5.62 3 -9 3 C-9 2.34 -9 1.68 -9 1 C-2.25 -1.125 -2.25 -1.125 0 0 Z " fill="#8094D2" transform="translate(352,277)"/>
<path d="M0 0 C0.66 0.33 1.32 0.66 2 1 C1.34 1.66 0.68 2.32 0 3 C0.66 3.33 1.32 3.66 2 4 C1.67 6.31 1.34 8.62 1 11 C1.99 11 2.98 11 4 11 C4 11.66 4 12.32 4 13 C3.34 13 2.68 13 2 13 C1.67 15.97 1.34 18.94 1 22 C1.78375 22.103125 2.5675 22.20625 3.375 22.3125 C6 23 6 23 8 26 C7.4225 25.814375 6.845 25.62875 6.25 25.4375 C3.75807903 24.95295981 2.36040848 25.10467265 0 26 C-0.33 26.66 -0.66 27.32 -1 28 C0.65 28 2.3 28 4 28 C4 28.99 4 29.98 4 31 C2.39125 30.690625 2.39125 30.690625 0.75 30.375 C-2.87619096 30.0123809 -4.08291076 30.01637931 -7 32 C-7.33 30.68 -7.66 29.36 -8 28 C-7.21625 27.938125 -6.4325 27.87625 -5.625 27.8125 C-4.75875 27.544375 -3.8925 27.27625 -3 27 C-0.15809917 21.51919125 -0.00036898 14.80978254 -1.55859375 8.87109375 C-1.76613281 8.27425781 -1.97367188 7.67742187 -2.1875 7.0625 C-3 4 -3 4 -1.625 1.5625 C-1.08875 1.046875 -0.5525 0.53125 0 0 Z " fill="#B6C2E5" transform="translate(177,147)"/>
<path d="M0 0 C2.0078125 0.23046875 2.0078125 0.23046875 5.0078125 2.23046875 C4.6778125 3.22046875 4.3478125 4.21046875 4.0078125 5.23046875 C3.3478125 4.57046875 2.6878125 3.91046875 2.0078125 3.23046875 C0.09774944 2.91284415 0.09774944 2.91284415 -1.9921875 2.98046875 C-2.6934375 2.9753125 -3.3946875 2.97015625 -4.1171875 2.96484375 C-6.2357544 3.0734136 -6.2357544 3.0734136 -7.9921875 5.23046875 C-8.51919414 10.45594661 -8.51919414 10.45594661 -6.8671875 15.23046875 C-4.1148781 16.6983671 -2.0654222 16.54406413 1.0078125 16.23046875 C3.31012016 15.33215859 3.31012016 15.33215859 5.0078125 14.23046875 C4.3478125 15.55046875 3.6878125 16.87046875 3.0078125 18.23046875 C-5.82305266 19.00209774 -5.82305266 19.00209774 -10.1171875 16.16796875 C-12.49395769 12.44436212 -12.76752575 10.57236298 -11.9921875 6.23046875 C-9.5546875 3.35546875 -9.5546875 3.35546875 -6.9921875 1.23046875 C-5.11574989 -0.64596886 -2.49413049 0.05061888 0 0 Z " fill="#D8DEF1" transform="translate(82.9921875,304.76953125)"/>
<path d="M0 0 C8.19256018 -0.63019694 8.19256018 -0.63019694 11.5625 2 C12.036875 2.66 12.51125 3.32 13 4 C12.030625 4.12375 11.06125 4.2475 10.0625 4.375 C8.5465625 4.684375 8.5465625 4.684375 7 5 C6.67 5.66 6.34 6.32 6 7 C4.68 7 3.36 7 2 7 C0.32774271 7.30404678 -1.34080104 7.63128912 -3 8 C-3 7.34 -3 6.68 -3 6 C-3.99 5.67 -4.98 5.34 -6 5 C-5.01 3.68 -4.02 2.36 -3 1 C-2.34 1.33 -1.68 1.66 -1 2 C-0.67 1.34 -0.34 0.68 0 0 Z " fill="#738ACE" transform="translate(157,144)"/>
<path d="M0 0 C-0.33 1.32 -0.66 2.64 -1 4 C-1.66 3.34 -2.32 2.68 -3 2 C-4.91006306 1.6823754 -4.91006306 1.6823754 -7 1.75 C-7.70125 1.74484375 -8.4025 1.7396875 -9.125 1.734375 C-11.2435669 1.84294485 -11.2435669 1.84294485 -13 4 C-13.32965235 7.56024543 -13.37630385 10.1367147 -11.9375 13.4375 C-9.96195691 15.31017571 -9.96195691 15.31017571 -6.5625 15.4375 C-2.95853694 14.99490804 -1.56984291 14.46704919 1 12 C-0.875 15.875 -0.875 15.875 -2 17 C-6.45602067 17.56160591 -9.98283621 17.5297728 -14 15.4375 C-16.64067441 12.21917807 -17 10.14068922 -17 6 C-15.79961065 3.15697259 -14.73900498 1.57478165 -12.3125 -0.3125 C-8.36823735 -1.48511863 -3.74393425 -1.87196713 0 0 Z " fill="#DDE3F3" transform="translate(278,306)"/>
<path d="M0 0 C4.62 0 9.24 0 14 0 C14 0.99 14 1.98 14 3 C11.03 2.505 11.03 2.505 8 2 C8 6.95 8 11.9 8 17 C8.66 17.33 9.32 17.66 10 18 C7.69 18 5.38 18 3 18 C3.66 17.67 4.32 17.34 5 17 C5 12.05 5 7.1 5 2 C3.35 2.33 1.7 2.66 0 3 C0 2.01 0 1.02 0 0 Z " fill="#C3CDEA" transform="translate(302,305)"/>
<path d="M0 0 C2.31 0.33 4.62 0.66 7 1 C7.33 2.32 7.66 3.64 8 5 C7.34 5 6.68 5 6 5 C6 5.66 6 6.32 6 7 C6.66 7 7.32 7 8 7 C7.67 7.99 7.34 8.98 7 10 C3.625 10.625 3.625 10.625 0 11 C-0.66 10.34 -1.32 9.68 -2 9 C-1.45652174 2.91304348 -1.45652174 2.91304348 0 0 Z " fill="#2F50B5" transform="translate(416,213)"/>
<path d="M0 0 C3.96 0 7.92 0 12 0 C11.67 0.99 11.34 1.98 11 3 C8.69 2.67 6.38 2.34 4 2 C4 3.98 4 5.96 4 8 C5.98 7.67 7.96 7.34 10 7 C9.67 7.99 9.34 8.98 9 10 C7.35 9.67 5.7 9.34 4 9 C4 11.64 4 14.28 4 17 C6.97 16.34 9.94 15.68 13 15 C12.67 15.99 12.34 16.98 12 18 C8.04 18 4.08 18 0 18 C0.66 17.67 1.32 17.34 2 17 C1.85941524 14.54126232 1.71277001 12.08314825 1.5625 9.625 C1.52318359 8.92632812 1.48386719 8.22765625 1.44335938 7.5078125 C1.25719866 3.62639508 1.25719866 3.62639508 0 0 Z " fill="#E2E7F5" transform="translate(225,305)"/>
<path d="M0 0 C1.32 0 2.64 0 4 0 C4 1.65 4 3.3 4 5 C4.66 5.33 5.32 5.66 6 6 C6 7.32 6 8.64 6 10 C5.01 10.495 5.01 10.495 4 11 C4 11.66 4 12.32 4 13 C3.34 13 2.68 13 2 13 C1.67 14.65 1.34 16.3 1 18 C0.67 18 0.34 18 0 18 C-0.0825 16.9275 -0.165 15.855 -0.25 14.75 C-1.05476902 10.7261549 -1.87729874 9.51830747 -5 7 C-5.33 8.32 -5.66 9.64 -6 11 C-7.32 9.35 -8.64 7.7 -10 6 C-8.01432292 5.77213542 -6.02864583 5.54427083 -4.04296875 5.31640625 C-1.80603607 5.02829265 -1.80603607 5.02829265 1 4 C1.66 4 2.32 4 3 4 C3 3.01 3 2.02 3 1 C2.01 0.67 1.02 0.34 0 0 Z " fill="#9AAADB" transform="translate(196,160)"/>
<path d="M0 0 C0.33 0.99 0.66 1.98 1 3 C0.67 3.66 0.34 4.32 0 5 C1.98 3.35 3.96 1.7 6 0 C6.66 0.33 7.32 0.66 8 1 C7.57847656 1.47050781 7.15695313 1.94101563 6.72265625 2.42578125 C6.17480469 3.04839844 5.62695312 3.67101562 5.0625 4.3125 C4.24458984 5.23482422 4.24458984 5.23482422 3.41015625 6.17578125 C0.49994742 9.94051123 0.89551206 13.61081461 0.9375 18.1875 C0.94652344 19.45980469 0.95554688 20.73210937 0.96484375 22.04296875 C0.97644531 23.01878906 0.98804688 23.99460937 1 25 C-1.3129482 22.6870518 -1.49580975 21.52095125 -2.125 18.375 C-2.29257813 17.55773437 -2.46015625 16.74046875 -2.6328125 15.8984375 C-2.75398437 15.27195312 -2.87515625 14.64546875 -3 14 C-3.99 14.99 -4.98 15.98 -6 17 C-5.34496718 12.94180817 -4.05440879 9.46028718 -2.4375 5.6875 C-1.75494141 4.08455078 -1.75494141 4.08455078 -1.05859375 2.44921875 C-0.53458984 1.23685547 -0.53458984 1.23685547 0 0 Z " fill="#8A9DD5" transform="translate(164,243)"/>
<path d="M0 0 C13.2 0 26.4 0 40 0 C40 0.33 40 0.66 40 1 C38.70751343 1.02187378 38.70751343 1.02187378 37.38891602 1.04418945 C34.15125625 1.10572869 30.91419072 1.17996783 27.67700195 1.26245117 C26.28355638 1.29543308 24.88998578 1.32354567 23.49633789 1.34643555 C9.23700964 1.42165697 9.23700964 1.42165697 -3 8 C-1.125 2.25 -1.125 2.25 0 0 Z " fill="#D1D8EE" transform="translate(82,197)"/>
<path d="M0 0 C2.97 0.33 5.94 0.66 9 1 C9 4.96679333 7.720685 6.20374041 5 9 C3.68 9 2.36 9 1 9 C-0.61949011 6.42786866 -1.04408751 5.32330841 -0.625 2.25 C-0.41875 1.5075 -0.2125 0.765 0 0 Z " fill="#3D5CBA" transform="translate(401,221)"/>
<path d="M0 0 C1.98 0 3.96 0 6 0 C6.66 1.32 7.32 2.64 8 4 C7.34 4 6.68 4 6 4 C6 4.66 6 5.32 6 6 C4.68 5.67 3.36 5.34 2 5 C1.896875 5.78375 1.79375 6.5675 1.6875 7.375 C1 10 1 10 -2 12 C-5.125 5.375 -5.125 5.375 -4 2 C-3.34 2.66 -2.68 3.32 -2 4 C-1.34 2.68 -0.68 1.36 0 0 Z " fill="#7C91D1" transform="translate(399,207)"/>
<path d="M0 0 C0.66 0 1.32 0 2 0 C2.66 1.32 3.32 2.64 4 4 C4.33 3.34 4.66 2.68 5 2 C5.66 2 6.32 2 7 2 C7 4.64 7 7.28 7 10 C5.35 10.66 3.7 11.32 2 12 C-0.48772258 8.7162062 -1.03180444 7.38801417 -0.6875 3.1875 C-0.460625 2.135625 -0.23375 1.08375 0 0 Z " fill="#5A75C5" transform="translate(411,199)"/>
<path d="M0 0 C2.31 0.66 4.62 1.32 7 2 C7.33 3.65 7.66 5.3 8 7 C7.01 7 6.02 7 5 7 C5 7.66 5 8.32 5 9 C5.66 9.33 6.32 9.66 7 10 C5.35 10.33 3.7 10.66 2 11 C1.67 10.01 1.34 9.02 1 8 C0.34 7.67 -0.32 7.34 -1 7 C-0.67 4.69 -0.34 2.38 0 0 Z " fill="#6C83CB" transform="translate(428,217)"/>
<path d="M0 0 C2.31 0 4.62 0 7 0 C6.34 0.66 5.68 1.32 5 2 C4.69400937 4.56916657 4.48912913 7.04758384 4.375 9.625 C4.33632812 10.33140625 4.29765625 11.0378125 4.2578125 11.765625 C4.16352276 13.50998524 4.08067109 15.25495691 4 17 C8.60742865 15.78955868 8.60742865 15.78955868 13 14 C12.67 15.32 12.34 16.64 12 18 C8.04 18 4.08 18 0 18 C0.66 17.67 1.32 17.34 2 17 C1.85941524 14.54126232 1.71277001 12.08314825 1.5625 9.625 C1.52318359 8.92632812 1.48386719 8.22765625 1.44335938 7.5078125 C1.25719866 3.62639508 1.25719866 3.62639508 0 0 Z " fill="#DBE1F2" transform="translate(189,305)"/>
<path d="M0 0 C0.33 0 0.66 0 1 0 C1.33 3.3 1.66 6.6 2 10 C1.34 10 0.68 10 0 10 C-0.33 10.99 -0.66 11.98 -1 13 C-1.33 12.01 -1.66 11.02 -2 10 C-4.00016466 8.79117904 -4.00016466 8.79117904 -6 8 C-5.67 6.35 -5.34 4.7 -5 3 C-3.68 3 -2.36 3 -1 3 C-0.67 2.01 -0.34 1.02 0 0 Z " fill="#5873C4" transform="translate(159,203)"/>
<path d="M0 0 C1.5625 1.125 1.5625 1.125 3 3 C2.814375 3.969375 2.62875 4.93875 2.4375 5.9375 C2.293125 6.948125 2.14875 7.95875 2 9 C3.29233607 10.37310707 4.62437146 11.71034824 6 13 C5.75 15.25 5.75 15.25 5 17 C4.01 17 3.02 17 2 17 C1.32880451 15.5437455 0.66318193 14.08492133 0 12.625 C-0.37125 11.81289062 -0.7425 11.00078125 -1.125 10.1640625 C-2 8 -2 8 -2 6 C-1.34 6 -0.68 6 0 6 C0 4.02 0 2.04 0 0 Z " fill="#4E6AC0" transform="translate(390,191)"/>
<path d="M0 0 C-1.65 0.66 -3.3 1.32 -5 2 C-4.01 2.99 -3.02 3.98 -2 5 C-10 5 -10 5 -12 4 C-12 4.99 -12 5.98 -12 7 C-12.66 7 -13.32 7 -14 7 C-14 6.34 -14 5.68 -14 5 C-16.97 5.66 -19.94 6.32 -23 7 C-19.38628112 3.7919989 -15.46796414 2.62830502 -10.9375 1.25 C-10.21755859 1.01667969 -9.49761719 0.78335938 -8.75585938 0.54296875 C-3.37616117 -1.12538706 -3.37616117 -1.12538706 0 0 Z " fill="#AAB7E1" transform="translate(168,181)"/>
<path d="M0 0 C0.66 0.33 1.32 0.66 2 1 C2.04241723 3.33294775 2.04092937 5.66702567 2 8 C1 9 1 9 -1.5625 9.0625 C-2.366875 9.041875 -3.17125 9.02125 -4 9 C-4.12375 8.360625 -4.2475 7.72125 -4.375 7.0625 C-4.684375 6.0415625 -4.684375 6.0415625 -5 5 C-5.66 4.67 -6.32 4.34 -7 4 C-1.7265625 0.77734375 -1.7265625 0.77734375 0 0 Z " fill="#4765BE" transform="translate(423,243)"/>
<path d="M0 0 C0.99 0.33 1.98 0.66 3 1 C2.731875 1.515625 2.46375 2.03125 2.1875 2.5625 C0.67650593 5.66401415 -0.65572726 8.82262806 -2 12 C-4.89932357 9.60490662 -5.50168276 7.68754757 -6 4 C-5.195625 3.525625 -4.39125 3.05125 -3.5625 2.5625 C-1.15246512 1.23099846 -1.15246512 1.23099846 0 0 Z " fill="#7289CD" transform="translate(409,226)"/>
<path d="M0 0 C0 0.99 0 1.98 0 3 C4.29 3.33 8.58 3.66 13 4 C13 4.66 13 5.32 13 6 C6.07 6 -0.86 6 -8 6 C-8 5.34 -8 4.68 -8 4 C-6.576875 3.566875 -6.576875 3.566875 -5.125 3.125 C-1.94788422 2.23174891 -1.94788422 2.23174891 0 0 Z " fill="#7D92D1" transform="translate(270,274)"/>
<path d="M0 0 C4.75 0.875 4.75 0.875 7 2 C7 2.66 7 3.32 7 4 C7.99 4.33 8.98 4.66 10 5 C7.53721199 7.46278801 5.29323018 7.99771255 2 9 C2 8.34 2 7.68 2 7 C0.68 6.34 -0.64 5.68 -2 5 C-0.68 4.34 0.64 3.68 2 3 C1.34 2.01 0.68 1.02 0 0 Z " fill="#C9D2EC" transform="translate(127,193)"/>
<path d="M0 0 C2.21844626 0.19015254 3.41522155 0.41522155 5 2 C5.04063832 3.66617115 5.042721 5.33388095 5 7 C4.01 6.34 3.02 5.68 2 5 C1.34 6.65 0.68 8.3 0 10 C-0.66 10 -1.32 10 -2 10 C-1.67 8.35 -1.34 6.7 -1 5 C-1.99 4.67 -2.98 4.34 -4 4 C-2.25 1.9375 -2.25 1.9375 0 0 Z " fill="#738ACE" transform="translate(423,261)"/>
<path d="M0 0 C1.65 0.33 3.3 0.66 5 1 C4.979375 1.94875 4.95875 2.8975 4.9375 3.875 C4.77448174 6.90666283 4.77448174 6.90666283 6 9 C2.28400809 9.20086443 1.22791555 9.1519437 -2 7 C-1.34 4.69 -0.68 2.38 0 0 Z " fill="#2C4EB5" transform="translate(420,224)"/>
<path d="M0 0 C2.875 0.3125 2.875 0.3125 6 1 C6.66 1.99 7.32 2.98 8 4 C7.125 7.6875 7.125 7.6875 6 11 C4.35 10.67 2.7 10.34 1 10 C1.33 9.01 1.66 8.02 2 7 C2.99 6.67 3.98 6.34 5 6 C3.35 4.02 1.7 2.04 0 0 Z " fill="#6F86CC" transform="translate(379,191)"/>
<path d="M0 0 C1.65 0 3.3 0 5 0 C5 1.65 5 3.3 5 5 C4.01 5.495 4.01 5.495 3 6 C3.95865509 8.33075929 3.95865509 8.33075929 7 10 C6.360625 10.12375 5.72125 10.2475 5.0625 10.375 C4.381875 10.58125 3.70125 10.7875 3 11 C2.67 11.66 2.34 12.32 2 13 C0.21742529 9.76908333 0 7.67481998 0 4 C-0.99 3.34 -1.98 2.68 -3 2 C-2.01 2 -1.02 2 0 2 C0 1.34 0 0.68 0 0 Z " fill="#8094D2" transform="translate(426,236)"/>
<path d="M0 0 C0.99 0.66 1.98 1.32 3 2 C2.67 2.99 2.34 3.98 2 5 C1.34 4.34 0.68 3.68 0 3 C-1.91006306 2.6823754 -1.91006306 2.6823754 -4 2.75 C-4.70125 2.74484375 -5.4025 2.7396875 -6.125 2.734375 C-8.2435669 2.84294485 -8.2435669 2.84294485 -10 5 C-10.39764263 6.98821313 -10.73775349 8.98944339 -11 11 C-11.33 11 -11.66 11 -12 11 C-12.8125 7.75 -12.8125 7.75 -13 4 C-9.25759217 -0.70819049 -5.58191155 -0.54018499 0 0 Z " fill="#B4C0E4" transform="translate(85,305)"/>
<path d="M0 0 C-0.99 0.495 -0.99 0.495 -2 1 C-0.02 1.66 1.96 2.32 4 3 C2.33333333 4.66666667 0.66666667 6.33333333 -1 8 C-2.32 6.35 -3.64 4.7 -5 3 C-4.67 2.67 -4.34 2.34 -4 2 C-6.64 1.34 -9.28 0.68 -12 0 C-7.89962722 -3.07527959 -4.53236941 -1.35971082 0 0 Z " fill="#A7B6E0" transform="translate(413,221)"/>
<path d="M0 0 C0 0.66 0 1.32 0 2 C0.99 2.33 1.98 2.66 3 3 C2.67 4.98 2.34 6.96 2 9 C1.34 8.01 0.68 7.02 0 6 C-0.99 6.495 -0.99 6.495 -2 7 C-3.5 5.6875 -3.5 5.6875 -5 4 C-5 3.01 -5 2.02 -5 1 C-3 0 -3 0 0 0 Z " fill="#2D4FB5" transform="translate(400,197)"/>
<path d="M0 0 C1.98 0 3.96 0 6 0 C6 0.66 6 1.32 6 2 C5.34 2 4.68 2 4 2 C4 7.61 4 13.22 4 19 C3.67 19 3.34 19 3 19 C3 17.35 3 15.7 3 14 C2.34 13.67 1.68 13.34 1 13 C1.33 9.04 1.66 5.08 2 1 C1.34 0.67 0.68 0.34 0 0 Z " fill="#B3BFE4" transform="translate(424,305)"/>
<path d="M0 0 C2.53541298 0.09086451 5.03554784 0.2370945 7.5625 0.4375 C8.62887695 0.51581055 8.62887695 0.51581055 9.71679688 0.59570312 C11.47821999 0.72574107 13.23916173 0.86226897 15 1 C15 1.66 15 2.32 15 3 C8.07 3 1.14 3 -6 3 C-6 2.34 -6 1.68 -6 1 C-4.7934375 1.0309375 -4.7934375 1.0309375 -3.5625 1.0625 C-1.06645115 1.29633621 -1.06645115 1.29633621 0 0 Z " fill="#748ACE" transform="translate(414,277)"/>
<path d="M0 0 C0 0.66 0 1.32 0 2 C-6.93 2 -13.86 2 -21 2 C-21 1.34 -21 0.68 -21 0 C-13.97381022 -1.5056121 -7.10547081 -0.64057643 0 0 Z " fill="#7D92D1" transform="translate(253,278)"/>
<path d="M0 0 C3 2 3 2 4 4.5625 C4.33 5.366875 4.66 6.17125 5 7 C5.99 7.33 6.98 7.66 8 8 C4.04 9.98 4.04 9.98 0 12 C0 8.04 0 4.08 0 0 Z " fill="#A3B2DE" transform="translate(137,181)"/>
<path d="M0 0 C2.375 0.3125 2.375 0.3125 5 1 C7.45416273 4.6812441 7.59384154 7.72261963 7 12 C5.5 14.5 5.5 14.5 4 16 C3.34 15.67 2.68 15.34 2 15 C2.33 14.46375 2.66 13.9275 3 13.375 C4.67229935 9.40328905 4.34307516 6.02922547 3 2 C2.01 1.67 1.02 1.34 0 1 C0 0.67 0 0.34 0 0 Z " fill="#E6EAF6" transform="translate(380,306)"/>
<path d="M0 0 C0.69738281 0.05220703 1.39476562 0.10441406 2.11328125 0.15820312 C3.82596203 0.28724072 5.53805066 0.42409614 7.25 0.5625 C7.25 1.2225 7.25 1.8825 7.25 2.5625 C0.65 2.5625 -5.95 2.5625 -12.75 2.5625 C-11.75 0.5625 -11.75 0.5625 -10.171875 -0.08984375 C-6.74917164 -0.5811673 -3.42728969 -0.28182817 0 0 Z " fill="#768CCF" transform="translate(218.75,277.4375)"/>
<path d="M0 0 C0.33 0 0.66 0 1 0 C1 1.65 1 3.3 1 5 C1.66 5 2.32 5 3 5 C3 5.66 3 6.32 3 7 C4.32 6.67 5.64 6.34 7 6 C6.67 7.65 6.34 9.3 6 11 C2 11 2 11 0 10 C-2.30215827 4.82014388 -2.30215827 4.82014388 -1.125 1.625 C-0.75375 1.08875 -0.3825 0.5525 0 0 Z " fill="#4563BD" transform="translate(408,234)"/>
<path d="M0 0 C3.86724404 0.53711723 5.96561775 1.59342098 9 4 C9.66 4 10.32 4 11 4 C11 4.66 11 5.32 11 6 C10.34 6 9.68 6 9 6 C8.67 7.32 8.34 8.64 8 10 C6.35 10 4.7 10 3 10 C3 9.34 3 8.68 3 8 C4.32 8.33 5.64 8.66 7 9 C6.29660434 6.49034386 6.29660434 6.49034386 5 4 C2.95894361 3.11306697 2.95894361 3.11306697 1 3 C1.33 2.34 1.66 1.68 2 1 C1.34 0.67 0.68 0.34 0 0 Z " fill="#D0D8EE" transform="translate(143,194)"/>
<path d="M0 0 C0 3 0 3 -2 7 C-6.29 7 -10.58 7 -15 7 C-11.34133425 5.17066712 -7.90876943 3.96879332 -4.0234375 2.78125 C-1.81585738 2.08582843 -1.81585738 2.08582843 0 0 Z " fill="#E2E7F4" transform="translate(129,272)"/>
<path d="M0 0 C1.18695553 3.56086658 1.35095418 6.97331024 1.5625 10.6875 C1.60568359 11.38939453 1.64886719 12.09128906 1.69335938 12.81445312 C1.7991736 14.54275206 1.90006581 16.2713511 2 18 C-0.3129482 15.6870518 -0.49580975 14.52095125 -1.125 11.375 C-1.29257813 10.55773437 -1.46015625 9.74046875 -1.6328125 8.8984375 C-1.75398437 8.27195312 -1.87515625 7.64546875 -2 7 C-2.99 7.99 -3.98 8.98 -5 10 C-4.125 5.25 -4.125 5.25 -3 3 C-2.34 3 -1.68 3 -1 3 C-0.67 2.01 -0.34 1.02 0 0 Z " fill="#6981CA" transform="translate(163,250)"/>
<path d="M0 0 C3.25985541 4.34647388 3.34252339 4.7480032 2.6875 9.75 C2.50767578 11.22726562 2.50767578 11.22726562 2.32421875 12.734375 C2.21722656 13.48203125 2.11023438 14.2296875 2 15 C2.66 15.33 3.32 15.66 4 16 C2.02 16 0.04 16 -2 16 C-1.34 15.67 -0.68 15.34 0 15 C0 10.05 0 5.1 0 0 Z " fill="#C1CBE9" transform="translate(413,307)"/>
<path d="M0 0 C0.268125 0.556875 0.53625 1.11375 0.8125 1.6875 C1.204375 2.450625 1.59625 3.21375 2 4 C2.4125 4.886875 2.825 5.77375 3.25 6.6875 C4.86246846 9.31778176 4.86246846 9.31778176 8.1875 9.8125 C9.115625 9.874375 10.04375 9.93625 11 10 C11 10.33 11 10.66 11 11 C6.62618037 11.42880585 4.65174704 11.48534354 1.0625 8.8125 C-1 6 -1 6 -1.375 3.25 C-1 1 -1 1 0 0 Z " fill="#EDF0F8" transform="translate(113,312)"/>
<path d="M0 0 C0.66 0.33 1.32 0.66 2 1 C1.34 1.66 0.68 2.32 0 3 C0.66 3.33 1.32 3.66 2 4 C1.67 6.31 1.34 8.62 1 11 C0.34 11 -0.32 11 -1 11 C-2.1875 7.75 -2.1875 7.75 -3 4 C-1.625 1.5625 -1.625 1.5625 0 0 Z " fill="#98A9DB" transform="translate(177,147)"/>
<path d="M0 0 C1.32 0.33 2.64 0.66 4 1 C3.67 3.31 3.34 5.62 3 8 C1.125 8.625 1.125 8.625 -1 9 C-1.66 8.34 -2.32 7.68 -3 7 C-1.68 6.67 -0.36 6.34 1 6 C0.67 5.67 0.34 5.34 0 5 C-0.04063832 3.33382885 -0.042721 1.66611905 0 0 Z " fill="#627CC8" transform="translate(424,226)"/>
<path d="M0 0 C2.33944736 0.28730055 4.6739143 0.61936779 7 1 C5.75 3 5.75 3 4 5 C2.68 5 1.36 5 0 5 C-0.5625 3.0625 -0.5625 3.0625 -1 1 C-0.67 0.67 -0.34 0.34 0 0 Z " fill="#2B4DB4" transform="translate(402,225)"/>
<path d="M0 0 C0.66 0 1.32 0 2 0 C2 2.64 2 5.28 2 8 C0.35 8.66 -1.3 9.32 -3 10 C-3 9.01 -3 8.02 -3 7 C-2.34 6.67 -1.68 6.34 -1 6 C-1.33 5.34 -1.66 4.68 -2 4 C-1.34 4 -0.68 4 0 4 C0 2.68 0 1.36 0 0 Z " fill="#516DC1" transform="translate(416,201)"/>
<path d="M0 0 C2.31 0.66 4.62 1.32 7 2 C7.33 3.65 7.66 5.3 8 7 C7.38125 6.649375 6.7625 6.29875 6.125 5.9375 C5.073125 5.4734375 5.073125 5.4734375 4 5 C3.01 5.495 3.01 5.495 2 6 C1.34 4.02 0.68 2.04 0 0 Z " fill="#4C69C0" transform="translate(428,217)"/>
<path d="M0 0 C6.93 0 13.86 0 21 0 C19.68 1.65 18.36 3.3 17 5 C16.67 4.01 16.34 3.02 16 2 C10.72 1.67 5.44 1.34 0 1 C0 0.67 0 0.34 0 0 Z " fill="#BAC5E6" transform="translate(260,197)"/>
<path d="M0 0 C2 1.3125 2 1.3125 4 3 C4 3.99 4 4.98 4 6 C2.02 6.99 2.02 6.99 0 8 C-2 6 -2 6 -3 4 C-2.34 3.67 -1.68 3.34 -1 3 C-0.67 2.01 -0.34 1.02 0 0 Z " fill="#B1BDE3" transform="translate(396,204)"/>
<path d="M0 0 C-1.65 0.66 -3.3 1.32 -5 2 C-4.01 2.99 -3.02 3.98 -2 5 C-4.66666667 5 -7.33333333 5 -10 5 C-9.875 3.125 -9.875 3.125 -9 1 C-5.3931275 -0.64661571 -3.8148779 -1.27162597 0 0 Z " fill="#8297D3" transform="translate(168,181)"/>
<path d="M0 0 C-0.33 2.31 -0.66 4.62 -1 7 C-1.66 7 -2.32 7 -3 7 C-3.66 5.02 -4.32 3.04 -5 1 C-3 0 -3 0 0 0 Z " fill="#5974C4" transform="translate(415,246)"/>
<path d="M0 0 C2.7839183 1.39195915 2.97898997 3.15575779 4 6 C2.68 6.33 1.36 6.66 0 7 C0 6.34 0 5.68 0 5 C-0.99 4.67 -1.98 4.34 -3 4 C-2.01 2.68 -1.02 1.36 0 0 Z " fill="#91A3D8" transform="translate(154,145)"/>
<path d="M0 0 C7.75 -0.125 7.75 -0.125 10 1 C9.67 2.32 9.34 3.64 9 5 C8.34 4.34 7.68 3.68 7 3 C4.68234271 2.28072705 2.34904126 1.6090107 0 1 C0 0.67 0 0.34 0 0 Z " fill="#B3BFE4" transform="translate(268,305)"/>
<path d="M0 0 C0.66 0.33 1.32 0.66 2 1 C1.34 2.98 0.68 4.96 0 7 C0.99 7.33 1.98 7.66 3 8 C1.35 8.33 -0.3 8.66 -2 9 C-1.125 2.25 -1.125 2.25 0 0 Z " fill="#4261BC" transform="translate(416,213)"/>
<path d="M0 0 C2.97 0.33 5.94 0.66 9 1 C9 1.66 9 2.32 9 3 C8.34 3 7.68 3 7 3 C7 3.66 7 4.32 7 5 C5.68 4.67 4.36 4.34 3 4 C3 3.34 3 2.68 3 2 C2.01 1.67 1.02 1.34 0 1 C0 0.67 0 0.34 0 0 Z " fill="#3C5BBA" transform="translate(419,233)"/>
<path d="M0 0 C0.66 0.33 1.32 0.66 2 1 C1.67 1.99 1.34 2.98 1 4 C1.66 4 2.32 4 3 4 C3.66 3.01 4.32 2.02 5 1 C4.67 2.65 4.34 4.3 4 6 C2.02 6 0.04 6 -2 6 C-2 4.68 -2 3.36 -2 2 C-1.34 2 -0.68 2 0 2 C0 1.34 0 0.68 0 0 Z " fill="#526EC2" transform="translate(175,181)"/>
<path d="M0 0 C3.96 0 7.92 0 12 0 C12 0.99 12 1.98 12 3 C10.9275 2.79375 9.855 2.5875 8.75 2.375 C5.12380904 2.0123809 3.91708924 2.01637931 1 4 C0.67 2.68 0.34 1.36 0 0 Z " fill="#9DACDC" transform="translate(169,175)"/>
<path d="M0 0 C0 1.32 0 2.64 0 4 C-1.65 4 -3.3 4 -5 4 C-5.33 2.68 -5.66 1.36 -6 0 C-2.25 -1.125 -2.25 -1.125 0 0 Z " fill="#3758B8" transform="translate(434,241)"/>
<path d="M0 0 C0.66 0 1.32 0 2 0 C2 0.66 2 1.32 2 2 C2.99 2.33 3.98 2.66 5 3 C4.34 4.98 3.68 6.96 3 9 C0.87491756 5.81237635 0.4979837 3.73487777 0 0 Z " fill="#7D92D1" transform="translate(416,229)"/>
<path d="M0 0 C5.53846154 0.49230769 5.53846154 0.49230769 7.875 3.0625 C8.431875 4.0215625 8.431875 4.0215625 9 5 C8.67 5.66 8.34 6.32 8 7 C6.02 5.35 4.04 3.7 2 2 C1.01 2.495 1.01 2.495 0 3 C0 2.01 0 1.02 0 0 Z " fill="#4462BD" transform="translate(161,140)"/>
<path d="M0 0 C0.53625 0.639375 1.0725 1.27875 1.625 1.9375 C4.44367193 4.38529404 6.33860732 4.66714612 10 5 C10 5.33 10 5.66 10 6 C4.62694301 6.35233161 4.62694301 6.35233161 2 6 C0 4 0 4 -1 2 C-0.67 1.34 -0.34 0.68 0 0 Z " fill="#DFE4F4" transform="translate(372,317)"/>
<path d="M0 0 C0.66 0 1.32 0 2 0 C2.66 2.64 3.32 5.28 4 8 C2.68 7.67 1.36 7.34 0 7 C0 4.69 0 2.38 0 0 Z " fill="#E7EBF6" transform="translate(71,311)"/>
<path d="M0 0 C0.1875 2.375 0.1875 2.375 0 5 C-0.99 5.66 -1.98 6.32 -3 7 C-3.66 6.67 -4.32 6.34 -5 6 C-2.84615385 0 -2.84615385 0 0 0 Z " fill="#748ACE" transform="translate(425,251)"/>
<path d="M0 0 C2.64 0 5.28 0 8 0 C7.34 1.32 6.68 2.64 6 4 C5.401875 3.79375 4.80375 3.5875 4.1875 3.375 C1.71549154 2.69328085 1.71549154 2.69328085 -1 5 C-0.67 3.35 -0.34 1.7 0 0 Z " fill="#879BD5" transform="translate(403,202)"/>
<path d="M0 0 C0.99 0.33 1.98 0.66 3 1 C5.14255793 0.61067144 5.14255793 0.61067144 7 0 C7.33 0.66 7.66 1.32 8 2 C5.03 2.66 2.06 3.32 -1 4 C-0.67 2.68 -0.34 1.36 0 0 Z " fill="#6F86CC" transform="translate(135,193)"/>
<path d="M0 0 C1.485 0.99 1.485 0.99 3 2 C2.67 4.31 2.34 6.62 2 9 C1.34 8.67 0.68 8.34 0 8 C0 5.36 0 2.72 0 0 Z " fill="#DDE2F3" transform="translate(137,181)"/>
<path d="M0 0 C0 1.32 0 2.64 0 4 C-0.99 4.495 -0.99 4.495 -2 5 C-2 5.66 -2 6.32 -2 7 C-2.66 7 -3.32 7 -4 7 C-4.6875 5.1875 -4.6875 5.1875 -5 3 C-3.38441968 0.84589291 -2.74502455 0 0 0 Z " fill="#B6C2E5" transform="translate(202,166)"/>
<path d="M0 0 C0.66 0.33 1.32 0.66 2 1 C1.525625 1.37125 1.05125 1.7425 0.5625 2.125 C-1.52205802 4.62646962 -1.64621491 6.81593418 -2 10 C-2.33 10 -2.66 10 -3 10 C-3.33 7.69 -3.66 5.38 -4 3 C-2.68 2.01 -1.36 1.02 0 0 Z " fill="#CBD3EC" transform="translate(76,306)"/>
<path d="M0 0 C1.9375 0.1875 1.9375 0.1875 4 1 C5.25 3.0625 5.25 3.0625 6 5 C3.23723823 4.47731534 0.6739124 3.89130413 -2 3 C-1 1 -1 1 0 0 Z " fill="#4160BC" transform="translate(406,216)"/>
<path d="M0 0 C0 3 0 3 -2 6 C-3.32 5.67 -4.64 5.34 -6 5 C-5.25 3.0625 -5.25 3.0625 -4 1 C-1.875 0.25 -1.875 0.25 0 0 Z " fill="#4563BD" transform="translate(158,178)"/>
<path d="M0 0 C1.32 0.66 2.64 1.32 4 2 C3.34 2 2.68 2 2 2 C2 2.66 2 3.32 2 4 C0.35 4.33 -1.3 4.66 -3 5 C-3.33 4.34 -3.66 3.68 -4 3 C-3.34 2.34 -2.68 1.68 -2 1 C-1.01 1.66 -0.02 2.32 1 3 C0.67 2.01 0.34 1.02 0 0 Z " fill="#869AD4" transform="translate(413,242)"/>
<path d="M0 0 C0.66 0 1.32 0 2 0 C2.625 3.375 2.625 3.375 3 7 C2.34 7.66 1.68 8.32 1 9 C1 8.01 1 7.02 1 6 C0.34 6 -0.32 6 -1 6 C-1 5.34 -1 4.68 -1 4 C-0.34 4 0.32 4 1 4 C0.67 2.68 0.34 1.36 0 0 Z " fill="#7087CC" transform="translate(423,214)"/>
<path d="M0 0 C3 1 3 1 5 4 C4.34 4 3.68 4 3 4 C3 4.66 3 5.32 3 6 C2.34 6 1.68 6 1 6 C0.67 4.02 0.34 2.04 0 0 Z " fill="#5E78C6" transform="translate(402,207)"/>
<path d="M0 0 C1.35889995 2.71779989 0.66825385 4.05968307 0 7 C-0.33944795 8.99897128 -0.67421616 10.99875639 -1 13 C-1.33 13 -1.66 13 -2 13 C-2.16682272 8.07872966 -2.24828052 4.49656104 0 0 Z " fill="#4C69C0" transform="translate(168,162)"/>
</svg>
